# xmcd
#
# Track frame offsets:
#	150
#	17630
#	32427
#	44547
#	60275
#	75170
#	87093
#	100926
#	113334
#	129316
#	141955
#	154983
#	170737
#	182862
#
# Disc length: 2619 seconds
#
# Revision: 1
# Processed by: cddbd v1.5.2PL0 Copyright (c) Steve Scherf et al.
# Submitted via: audiograbber 1.83.01
#
DISCID=a40a390e
DTITLE=Lorrie Morgan - A Moment In Time
DYEAR=2009
DGENRE=Country
TTITLE0=Cry
TTITLE1=Are You Lonesome Tonight?
TTITLE2=After The Fire is Gone - with Tracy Lawrence
TTITLE3=Leavin' on My Mind
TTITLE4=Borrowed Angel
TTITLE5=Break it to Me Gently
TTITLE6=By the Time I Get to Phoenix
TTITLE7=Easy Lovin' - with Raul Malo
TTITLE8='Til I Get it Right
TTITLE9=Alright I'll Sign the Papers
TTITLE10=I'm Always on a Mountain When I Fall
TTITLE11=Misty Blue
TTITLE12=Wine Me Up
TTITLE13=Lovin' on Back Streets
EXTD=
EXTT0=
EXTT1=
EXTT2=
EXTT3=
EXTT4=
EXTT5=
EXTT6=
EXTT7=
EXTT8=
EXTT9=
EXTT10=
EXTT11=
EXTT12=
EXTT13=
PLAYORDER=
